# xmcd
#
# Track frame offsets:
# 150
# 9867
# 22279
# 41571
# 65526
# 89566
# 96412
# 116054
# 134459
# 150653
# 162800
# 174506
# 186127
# 204770
# 221407
#
# Disc length: 3206 seconds
#
# Revision: 1
# Processed by: cddbd v1.5.2PL0 Copyright (c) Steve Scherf et al.
# Submitted via: CedeCatalogueitor 2.6.0.6 http://personales.ya.com/cdcatalogueitor
#
DISCID=ca0c840f
DTITLE=George - A Week Of Kindness
DYEAR=1900
DGENRE=
TTITLE0=The New And Better Heart
TTITLE1=My Fear Keeps God A Hiding
TTITLE2=The Living Sound
TTITLE3=Week Of Wonders
TTITLE4=Now You Want To Settle Down
TTITLE5=Vanishing Sounds Of Britain
TTITLE6=Sunday Painter
TTITLE7=Spend My Time
TTITLE8=Song Of Degrees
TTITLE9=Fabula
TTITLE10=Supercharge
TTITLE11=Closest Of All
TTITLE12=Joy Could Be Here
TTITLE13=This Will Not Stop
TTITLE14=Older Too
EXTD=
EXTT0=
EXTT1=
EXTT2=
EXTT3=
EXTT4=
EXTT5=
EXTT6=
EXTT7=
EXTT8=
EXTT9=
EXTT10=
EXTT11=
EXTT12=
EXTT13=
EXTT14=
PLAYORDER=
